<?xml version="1.0" standalone="no"?>
<!DOCTYPE svg PUBLIC "-//W3C//DTD SVG 20010904//EN"
 "http://www.w3.org/TR/2001/REC-SVG-20010904/DTD/svg10.dtd">
<svg version="1.0" xmlns="http://www.w3.org/2000/svg"
 width="177.000000pt" height="178.000000pt" viewBox="0 0 177.000000 178.000000"
 preserveAspectRatio="xMidYMid meet">
<metadata>
Created by potrace 1.10, written by Peter Selinger 2001-2011
</metadata>
<g transform="translate(0.000000,178.000000) scale(0.100000,-0.100000)"
fill="#000000" stroke="none">
<path d="M858 1592 l-46 -47 32 -46 33 -47 36 73 36 73 -23 21 -22 21 -46 -48z"/>
<path d="M932 1508 c-17 -40 -32 -77 -32 -81 0 -9 192 -289 195 -285 1 2 25
46 53 98 l50 96 -116 123 -117 123 -33 -74z m146 -94 c60 -62 72 -81 68 -100
-9 -36 -46 -94 -60 -94 -16 0 -146 190 -146 213 0 10 7 31 15 48 20 38 29 33
123 -67z"/>
<path d="M740 1473 c-29 -32 -128 -133 -219 -225 l-165 -167 25 -28 c14 -16
64 -76 111 -135 l86 -106 143 305 143 305 -18 31 c-9 18 -25 42 -34 55 l-18
23 -54 -58z m75 -27 c15 -22 10 -35 -108 -287 -71 -153 -129 -265 -138 -267
-14 -2 -159 167 -159 186 0 10 372 393 382 392 4 0 15 -11 23 -24z"/>
<path d="M745 1109 c-77 -165 -140 -306 -140 -314 0 -15 165 -224 177 -225 3
0 8 6 10 13 6 25 283 527 291 527 17 0 -1 -39 -139 -293 l-145 -268 112 -140
c62 -76 116 -139 119 -139 4 0 26 21 50 48 24 26 106 111 183 188 l139 142
-39 53 c-109 149 -263 387 -263 407 0 13 -5 20 -12 17 -11 -4 -156 194 -193
264 -9 16 -33 -29 -150 -280z m212 131 c98 -139 103 -98 -42 -361 -70 -126
-132 -232 -137 -236 -16 -9 -138 131 -138 158 0 8 20 55 43 104 24 50 76 163
117 252 52 113 80 162 90 160 8 -1 38 -36 67 -77z m167 -247 c63 -86 220 -320
223 -333 5 -20 -292 -330 -316 -330 -15 0 -144 147 -181 206 -11 18 -1 42 100
230 157 290 142 271 174 227z"/>
<path d="M1161 1219 l-53 -101 52 -77 c29 -42 99 -144 155 -227 l103 -152 30
32 c16 17 51 72 77 121 26 50 53 98 59 107 9 15 -17 46 -174 206 -102 104
-187 190 -190 190 -3 1 -29 -44 -59 -99z m225 -119 c82 -83 151 -158 152 -167
4 -18 -5 -39 -61 -136 -25 -43 -45 -67 -55 -65 -16 3 -270 365 -271 387 -1 21
61 131 74 131 6 0 79 -68 161 -150z"/>
<path d="M250 975 l-85 -85 154 -154 154 -154 44 96 c23 53 43 98 43 99 0 2 5
3 10 3 18 0 11 -25 -36 -120 l-45 -94 94 -94 94 -94 44 81 c27 52 48 80 56 77
7 -3 13 2 13 10 0 10 -6 14 -15 11 -20 -8 -185 189 -185 222 0 16 -4 21 -14
18 -10 -4 -50 38 -123 128 -59 74 -110 134 -113 134 -3 1 -44 -37 -90 -84z
m185 -77 c46 -57 85 -111 85 -120 0 -22 -48 -128 -59 -128 -13 0 -226 219
-229 236 -4 18 85 114 105 114 7 0 51 -46 98 -102z m229 -278 c63 -77 64 -86
26 -148 l-20 -33 -29 20 c-45 32 -101 99 -101 121 0 27 41 110 55 110 6 0 37
-32 69 -70z"/>
<path d="M1585 873 c-16 -26 -35 -59 -43 -73 -9 -14 11 1 44 32 53 53 57 59
43 74 -15 14 -19 11 -44 -33z"/>
<path d="M738 438 l-45 -83 106 -108 105 -107 56 55 c32 33 51 58 45 63 -6 4
-53 59 -104 122 -52 63 -99 121 -106 128 -9 10 -21 -5 -57 -70z m144 -84 c45
-55 75 -100 72 -109 -3 -7 -17 -21 -31 -30 -25 -17 -25 -16 -105 63 -68 69
-79 84 -72 104 10 34 35 68 48 68 6 -1 46 -44 88 -96z"/>
</g>
</svg>
